PathFileType	4	(X/Y/Z)	D:\TRACE\spot_10-12-23\spot_body_baseline_4-v60.trc
DataRate	CameraRate	NumFrames	NumMarkers	Units	OrigDataRate	OrigDataStartFrame	OrigNumFrames
100.00	100.00	      28	9	mm	100.00	1751	      7000
Frame#	Time	front left toe			Front right toe			aft left toe			aft right toe			Arm			FL body			FR body			AL Body			AR Body			
		X1	Y1	Z1	X2	Y2	Z2	X3	Y3	Z3	X4	Y4	Z4	X5	Y5	Z5	X6	Y6	Z6	X7	Y7	Z7	X8	Y8	Z8	X9	Y9	Z9	

1751	17.500	-209.80840	21.06273	174.70233	263.29941	19.48422	128.07317	-166.01331	23.38157	615.91193	336.20187	18.99765	598.87103	30.64687	806.25159	-45.68788	-55.24822	544.79932	-16.82225	96.79484	547.79700	-33.72868	39.49398	553.58356	861.50848	189.91882	550.18372	847.10889	
1752	17.510	-209.79727	21.08820	174.71465	263.28610	19.48574	128.09361	-166.04060	23.41454	615.91968	336.16010	18.98621	598.92084	31.17254	806.15582	-44.97429	-55.13256	544.91113	-16.27899	97.10369	547.80505	-33.00850	39.76663	553.62744	861.99652	191.78777	551.53607	849.77325	
1753	17.520	-209.76869	21.15330	174.77341	263.20673	19.41774	128.08119	-166.00401	23.43157	615.96387	336.17230	18.99106	598.88147	31.60991	806.14740	-44.39346	-54.93077	544.92688	-15.66325	97.25462	547.93988	-32.85879	40.25682	553.72577	862.84253	192.23257	551.69275	850.48840	
1754	17.530	-209.75850	21.16076	174.80794	263.24927	19.37352	128.13622	-165.99265	23.43160	615.95715	336.18387	18.97303	598.95892	31.94040	806.14606	-43.92046	-54.44083	544.90015	-14.88572	97.64077	547.84882	-32.11374	40.48693	553.64551	863.57611	190.78740	550.15332	849.00708	
1755	17.540	-209.73041	21.16534	174.82501	263.29892	19.42400	128.18028	-165.96628	23.42997	615.96997	336.17841	18.94580	598.93347	32.26171	806.25134	-43.21898	-54.36222	545.09485	-14.38270	97.96778	547.74207	-31.22488	40.89804	553.69202	864.07623	191.99017	550.76953	850.84052	
1756	17.550	-209.70155	21.20847	174.89325	263.31317	19.42515	128.16666	-165.93753	23.50073	616.01276	336.29950	19.01231	599.02942	32.74040	806.35730	-42.47422	-54.00586	545.13763	-13.64215	98.13845	547.90198	-31.18405	41.44870	553.65222	864.72620	191.57309	549.86896	850.47424	
1757	17.560	-209.67387	21.24235	174.92819	263.09631	19.29769	128.15717	-165.94341	23.53252	616.04059	336.33127	18.86190	599.02710	33.26023	806.45642	-41.90571	-53.56937	545.25775	-13.06962	98.56529	547.82074	-30.20687	41.47253	553.80945	865.21375	191.84509	549.81189	850.98615	
1758	17.570	-209.71231	21.32915	174.94562	263.10168	19.27332	128.18449	-165.92052	23.52094	616.04877	336.23734	18.94399	599.03088	33.64890	806.57391	-41.14708	-53.26546	545.37122	-12.47690	98.88045	547.95514	-29.55988	41.85944	554.08826	866.52863	192.75815	550.10748	852.57953	
1759	17.580	-209.64964	21.32254	174.95706	263.02066	19.22689	128.20090	-165.90013	23.57168	616.08197	336.33356	18.96404	599.09033	34.21817	806.65686	-40.46544	-52.85224	545.61279	-11.72161	99.13982	548.18787	-28.91744	42.13041	553.81244	866.76715	192.56619	549.68768	852.40033	
1760	17.590	-209.64302	21.33074	174.97548	263.21585	19.32019	128.30516	-165.89713	23.61689	616.10510	336.26852	18.95155	599.08282	34.60939	806.71979	-39.77030	-52.56487	545.83130	-11.18098	99.17582	548.45941	-28.25401	42.36022	553.59277	867.08362	192.90573	549.61377	852.87903	
1761	17.600	-209.65752	21.36282	175.01453	263.12369	19.27822	128.27563	-165.88161	23.66005	616.12903	336.28513	18.92795	599.09882	34.88499	806.85559	-39.03250	-52.35348	545.96429	-10.57799	99.95552	548.35205	-27.58883	42.50777	553.36041	867.45081	194.15053	550.27625	854.48920	
1762	17.610	-209.64861	21.39541	175.04573	122.13651	515.69684	850.13025	-165.86314	23.65616	616.16467	336.39514	18.94906	599.10815	35.13727	807.06830	-38.39157	-52.08751	546.03192	-9.71962	100.34686	548.41290	-26.78060	42.51326	553.32019	867.92548	193.69591	549.61145	854.02655	
1763	17.620	-209.68686	21.45080	175.10313	64.90734	722.31097	241.03252	-165.86005	23.65800	616.18164	336.37073	18.91373	599.12476	35.39158	807.15247	-37.76500	-51.74277	546.11566	-9.14364	100.59271	548.52771	-26.51327	43.59013	553.42786	869.23718	194.23032	549.32190	854.77985	
1764	17.630	-209.68567	21.45219	175.12570	263.10089	19.29218	128.37573	-165.84715	23.67146	616.20117	336.34534	18.88501	599.12616	35.83726	807.19604	-36.96828	-51.60046	546.43597	-8.57554	100.99391	548.55548	-25.57516	43.89380	553.38702	869.73828	194.58888	549.50909	855.48407	
1765	17.640	-209.66008	21.46831	175.13144	263.16873	19.27618	128.39648	-165.82074	23.67158	616.23981	336.41849	18.89820	599.14520	36.22257	807.31555	-36.34544	-51.15478	546.47626	-7.73457	101.14244	548.60913	-24.80177	44.45545	553.40039	870.46808	194.84561	549.30121	856.25415	
1766	17.650	-209.64676	21.46740	175.17946	66.06654	722.38568	242.90070	-165.82687	23.66510	616.25958	336.32108	18.81527	599.16931	36.58716	807.49146	-35.65638	-50.76072	546.63025	-7.15104	101.29141	548.71698	-24.38487	44.92278	553.78174	871.72345	195.02425	549.21704	856.74811	
1767	17.660	-209.64983	21.50835	175.20357	263.14435	19.33157	128.49304	-165.81847	23.66590	616.27667	336.32367	18.83562	599.18286	37.07103	807.68726	-34.95481	-50.59425	546.85400	-6.58977	101.64068	548.81879	-23.56705	45.19881	553.67432	872.14319	195.35759	549.31055	857.19830	
1768	17.670	-209.65826	21.51224	175.22331	263.08423	19.35768	128.50626	-165.79982	23.65453	616.29102	336.22662	18.79183	599.16351	37.62962	807.73700	-34.24455	-50.26118	546.86761	-5.83807	102.02002	548.82697	-22.76027	45.47507	553.74091	872.44220	195.84273	549.26691	858.34241	
1769	17.680	-209.64418	21.52017	175.23647	66.41075	722.32751	244.73921	-165.78168	23.62487	616.36676	336.21661	18.76780	599.21246	38.18949	807.78772	-33.57594	-49.85082	546.78259	-5.13879	102.28293	548.92126	-22.57722	45.77607	553.73450	872.94763	196.03548	549.09412	858.74860	
1770	17.690	-209.63503	21.50124	175.26973	263.29706	19.44087	128.65039	-165.78235	23.57117	616.39301	336.31824	18.82281	599.23602	38.54979	807.73480	-32.98739	-49.66541	546.84393	-4.59329	102.69540	548.76691	-21.72978	46.06109	553.68726	873.94867	197.27985	549.52142	860.33093	
1771	17.700	-209.65448	21.52589	175.29575	263.28525	19.38493	128.66920	-165.82988	23.60057	616.38599	336.28973	18.79058	599.24548	38.99873	807.72766	-32.28072	-49.24990	546.83240	-3.75042	103.04382	548.73676	-20.82397	46.23168	553.71851	874.67755	197.03975	549.00940	860.26337	
1772	17.710	-209.63882	21.51979	175.31500	67.40913	722.31592	246.48970	-165.87898	23.63807	616.33978	336.27380	18.79395	599.23901	39.29473	807.63330	-31.61044	-48.79358	546.79437	-3.10124	103.19368	548.81921	-20.53329	45.95609	553.78778	875.08740	197.27499	549.01636	860.78381	
1773	17.720	-208.69920	24.10372	176.21042	39.14418	825.06787	263.97113	-165.86090	23.11424	617.01019	336.45398	18.95360	599.20691	39.55865	807.67529	-30.95845	-48.48028	546.58655	-2.57253	103.98267	548.96613	-19.58972	46.97380	553.66229	875.80695	198.20412	549.61896	862.24640	
1774	17.730	-207.43605	33.28506	179.48093	151.44783	423.66302	196.93155	-166.37996	23.35929	616.16266	336.44312	18.80108	599.51062	39.11901	807.70813	-30.27216	-47.62649	546.07983	-1.82394	104.80939	548.92303	-18.78338	46.85949	553.63379	876.24774	197.46999	549.36328	862.17609	
1775	17.740	-205.07643	44.81782	183.28564	264.54813	18.63217	129.12732	-166.51480	23.81224	616.33368	336.47778	19.01464	599.33362	38.45879	807.50397	-29.81562	-47.05507	545.54333	-1.60463	105.25922	548.85321	-18.66604	46.20210	553.81921	876.69556	197.69682	549.84637	862.70953	
1776	17.750	-206.90491	57.05864	184.74977	264.36517	18.48218	129.16347	-166.58156	24.10585	616.19067	336.47626	19.24683	599.63904	37.97789	806.90533	-29.62943	-46.53265	544.90375	-1.29597	105.73296	548.64996	-18.07286	47.75386	553.50238	877.51678	197.92630	550.40228	863.25623	
1777	17.760	-210.00404	69.04761	181.50232	159.91864	391.08069	192.46579	-165.61943	23.67071	616.43390	336.58765	19.12136	599.46619	38.13364	806.14044	-29.22284	-46.23154	544.23297	-0.52845	106.06281	548.41089	-17.34287	47.87976	553.60461	878.01160	198.25841	550.92401	863.66797	
1778	17.770	-213.88948	81.20031	175.95700	67.24515	722.09967	249.01424	-165.59219	23.63552	616.53656	336.72321	19.09860	599.43213	38.32734	805.77130	-28.85585	-46.00855	543.93140	0.27636	106.18476	548.25055	-16.67591	48.99004	553.34808	878.30487	198.92609	550.90143	864.32092	
